<svg width="8" height="11" viewBox="0 0 8 11" fill="none" xmlns="http://www.w3.org/2000/svg">
<path d="M6.49998 6.49998C6.77609 6.22386 7.22383 6.22391 7.49998 6.49998C7.77612 6.77612 7.77612 7.22383 7.49998 7.49998L4.70701 10.2929C4.31648 10.6834 3.68344 10.6834 3.29295 10.2929L0.499977 7.49998C0.22391 7.22383 0.22386 6.77609 0.499977 6.49998C0.776094 6.22386 1.22383 6.22391 1.49998 6.49998L3.99998 8.99998L6.49998 6.49998ZM6.49998 0.499977C6.77609 0.22386 7.22383 0.22391 7.49998 0.499977C7.77612 0.776119 7.77612 1.22383 7.49998 1.49998L4.70701 4.29295C4.31648 4.68339 3.68344 4.68344 3.29295 4.29295L0.499977 1.49998C0.22391 1.22383 0.22386 0.776094 0.499977 0.499977C0.776094 0.22386 1.22383 0.22391 1.49998 0.499977L3.99998 2.99998L6.49998 0.499977Z" fill="#41F6D7"/>
</svg>
